<?xml version="1.0" encoding="UTF-8"?>
<svg version="1.1" xmlns="http://www.w3.org/2000/svg" width="64" height="69">
<path d="M0 0 C21.12 0 42.24 0 64 0 C64 22.77 64 45.54 64 69 C42.88 69 21.76 69 0 69 C0 46.23 0 23.46 0 0 Z " fill="#FEFDFE" transform="translate(0,0)"/>
<path d="M0 0 C0.66 0 1.32 0 2 0 C2.33 9.24 2.66 18.48 3 28 C4.19159966 23.24619798 4.19159966 23.24619798 5.36254883 18.48730469 C6.33674186 14.72022233 7.38646203 11.90559522 10 9 C11.02826931 12.13667908 10.99386675 13.83184742 9.78515625 16.890625 C9.51123047 17.59960938 9.23730469 18.30859375 8.95507812 19.0390625 C8.66052734 19.76867187 8.36597656 20.49828125 8.0625 21.25 C7.62647461 22.36761719 7.62647461 22.36761719 7.18164062 23.5078125 C6.46426278 25.34241814 5.73342561 27.17175065 5 29 C7.46184406 25.99633984 9.72714519 23.00273427 11.75 19.6875 C12.17796875 18.99011719 12.6059375 18.29273437 13.046875 17.57421875 C13.36140625 17.05472656 13.6759375 16.53523438 14 16 C14.99 16.33 15.98 16.66 17 17 C16.67 18.98 16.34 20.96 16 23 C15.34 23 14.68 23 14 23 C14 23.66 14 24.32 14 25 C15.65 24.34 17.3 23.68 19 23 C18.84765625 24.765625 18.84765625 24.765625 18 27 C15.49609375 28.921875 15.49609375 28.921875 12.4375 30.75 C10.91962891 31.67039062 10.91962891 31.67039062 9.37109375 32.609375 C8.58863281 33.06828125 7.80617188 33.5271875 7 34 C10.63 32.68 14.26 31.36 18 30 C17.67 31.32 17.34 32.64 17 34 C15.02 34.495 15.02 34.495 13 35 C13.66 35.66 14.32 36.32 15 37 C14.01 39.475 14.01 39.475 13 42 C-6.10677083 43.94661458 -6.10677083 43.94661458 -12 41 C-12.625 38.4375 -12.625 38.4375 -13 36 C-12.01 35.505 -12.01 35.505 -11 35 C-11.825 34.67 -12.65 34.34 -13.5 34 C-16 32 -16 32 -16.33203125 30.01953125 C-16.31424822 28.01004942 -16.16416751 26.0028436 -16 24 C-11.95579349 25.77945087 -8.53921513 28.39529673 -5 31 C-5.495 30.38125 -5.99 29.7625 -6.5 29.125 C-8 27 -8 27 -8 25 C-8.66 25 -9.32 25 -10 25 C-14 19.70588235 -14 19.70588235 -14 16 C-13.34 16 -12.68 16 -12 16 C-10.37053772 18.30595384 -8.8564103 20.60196707 -7.375 23 C-6.95476563 23.66773437 -6.53453125 24.33546875 -6.1015625 25.0234375 C-5.06135408 26.67831454 -4.02985949 28.33866288 -3 30 C-3.26554687 29.14277344 -3.53109375 28.28554688 -3.8046875 27.40234375 C-5.59206032 21.6162135 -7.37213671 15.83317678 -9 10 C-8.01 9.67 -7.02 9.34 -6 9 C-4.35 14.61 -2.7 20.22 -1 26 C-0.67 17.42 -0.34 8.84 0 0 Z " fill="#5B2F3C" transform="translate(31,13)"/>
<path d="M0 0 C0.66 0 1.32 0 2 0 C3.80068015 2.42649031 5.47836549 4.84739297 7.125 7.375 C7.82689453 8.42300781 7.82689453 8.42300781 8.54296875 9.4921875 C12 14.73316782 12 14.73316782 12 17 C13.423125 16.9071875 13.423125 16.9071875 14.875 16.8125 C15.90625 16.874375 16.9375 16.93625 18 17 C18.66 17.99 19.32 18.98 20 20 C22.20725073 20.36362818 22.20725073 20.36362818 24.625 20.1875 C25.44226563 20.16042969 26.25953125 20.13335937 27.1015625 20.10546875 C28.04128906 20.05326172 28.04128906 20.05326172 29 20 C28.34 21.98 27.68 23.96 27 26 C7.89322917 27.94661458 7.89322917 27.94661458 2 25 C1.375 22.4375 1.375 22.4375 1 20 C1.66 19.67 2.32 19.34 3 19 C2.175 18.67 1.35 18.34 0.5 18 C-2 16 -2 16 -2.33203125 14.01953125 C-2.31424822 12.01004942 -2.16416751 10.0028436 -2 8 C2.04420651 9.77945087 5.46078487 12.39529673 9 15 C8.2575 14.071875 8.2575 14.071875 7.5 13.125 C6 11 6 11 6 9 C5.34 9 4.68 9 4 9 C0 3.70588235 0 3.70588235 0 0 Z " fill="#522A36" transform="translate(17,29)"/>
<path d="M0 0 C8.58 0 17.16 0 26 0 C25.67 1.32 25.34 2.64 25 4 C5.89322917 5.94661458 5.89322917 5.94661458 0 3 C0 2.01 0 1.02 0 0 Z " fill="#AC8B96" transform="translate(19,51)"/>
<path d="M0 0 C3.90791244 1.65334757 6.78998799 4.26807489 10 7 C10.99 7.66 11.98 8.32 13 9 C12.67 10.32 12.34 11.64 12 13 C9.625 13.125 9.625 13.125 7 13 C6.34 12.34 5.68 11.68 5 11 C4.13375 10.62875 3.2675 10.2575 2.375 9.875 C0 8 0 8 -0.32421875 6.02734375 C-0.31357329 4.01535274 -0.16436836 2.00529404 0 0 Z " fill="#CFB4BB" transform="translate(15,37)"/>
<path d="M0 0 C0.33 0 0.66 0 1 0 C1 2.97 1 5.94 1 9 C4.7763932 9.2981424 4.7763932 9.2981424 7 8 C5 15.33333333 3 22.66666667 1 30 C0.67 30 0.34 30 0 30 C0 20.1 0 10.2 0 0 Z " fill="#F2DFE6" transform="translate(33,14)"/>
<path d="M0 0 C1 3 1 3 0 6 C-0.66 6 -1.32 6 -2 6 C-2 6.66 -2 7.32 -2 8 C-0.35 7.34 1.3 6.68 3 6 C2.64174439 8.78710718 2.19463788 9.82431267 0.07421875 11.73828125 C-0.71339844 12.25777344 -1.50101563 12.77726562 -2.3125 13.3125 C-3.48232422 14.11107422 -3.48232422 14.11107422 -4.67578125 14.92578125 C-7 16 -7 16 -9.29296875 15.66796875 C-9.85628906 15.44753906 -10.41960938 15.22710937 -11 15 C-10.37351563 14.25234375 -9.74703125 13.5046875 -9.1015625 12.734375 C-8.28429688 11.74953125 -7.46703125 10.7646875 -6.625 9.75 C-5.40683594 8.28820312 -5.40683594 8.28820312 -4.1640625 6.796875 C-2.42148243 4.5447318 -1.123584 2.59288614 0 0 Z " fill="#E8D7DD" transform="translate(47,30)"/>
<path d="M0 0 C0.33 0 0.66 0 1 0 C1 9.57 1 19.14 1 29 C-0.77285431 25.45429137 -1.71229813 22.56675327 -2.625 18.75 C-2.88539062 17.67234375 -3.14578125 16.5946875 -3.4140625 15.484375 C-3.60742188 14.66453125 -3.80078125 13.8446875 -4 13 C-3.01 12.67 -2.02 12.34 -1 12 C-0.67 8.04 -0.34 4.08 0 0 Z " fill="#F6E8ED" transform="translate(30,14)"/>
<path d="M0 0 C1.1640625 1.6875 1.1640625 1.6875 2 4 C1.0234375 6.4375 1.0234375 6.4375 -0.625 9 C-1.15351562 9.845625 -1.68203125 10.69125 -2.2265625 11.5625 C-3.97395673 13.96420484 -5.84261307 15.96508482 -8 18 C-7.54548816 16.26982492 -7.08621143 14.54090123 -6.625 12.8125 C-6.36976562 11.84957031 -6.11453125 10.88664062 -5.8515625 9.89453125 C-3.65808618 2.43872412 -3.65808618 2.43872412 0 0 Z " fill="#F0DDE2" transform="translate(43,26)"/>
<path d="M0 0 C0.66 0.33 1.32 0.66 2 1 C0.62820313 8.48252838 -1.92163279 15.05604954 -5 22 C-6.3001258 18.09962261 -5.26608994 15.37595529 -4.1875 11.5625 C-4.00896484 10.89412109 -3.83042969 10.22574219 -3.64648438 9.53710938 C-2.72213307 6.17006799 -1.72160585 3.04591804 0 0 Z " fill="#59313C" transform="translate(40,22)"/>
<path d="M0 0 C2.49551158 2.49551158 3.07575992 4.66076626 4.1875 8 C4.55230469 9.0725 4.91710937 10.145 5.29296875 11.25 C6 14 6 14 5 16 C2.36 12.04 -0.28 8.08 -3 4 C-2.67 3.34 -2.34 2.68 -2 2 C-1.34 2 -0.68 2 0 2 C0 1.34 0 0.68 0 0 Z " fill="#EEDDE4" transform="translate(23,28)"/>
<path d="M0 0 C0.66 0 1.32 0 2 0 C2.67493341 2.22667765 3.33963044 4.45645977 4 6.6875 C4.37125 7.92886719 4.7425 9.17023437 5.125 10.44921875 C5.87703457 13.5010019 6.19034899 15.88898362 6 19 C4 18 4 18 3.21875 15.9609375 C2.9815625 15.10757813 2.744375 14.25421875 2.5 13.375 C2.24605469 12.4778125 1.99210937 11.580625 1.73046875 10.65625 C1.36888672 9.34140625 1.36888672 9.34140625 1 8 C0.60531871 6.62466887 0.20967319 5.24961358 -0.1875 3.875 C-0.455625 2.92625 -0.72375 1.9775 -1 1 C-0.67 0.67 -0.34 0.34 0 0 Z " fill="#57333E" transform="translate(23,22)"/>
<path d="M0 0 C0.66 0 1.32 0 2 0 C1.52112335 4.76264597 -0.49488642 7.22641652 -3.5625 10.8125 C-4.80193359 12.27623047 -4.80193359 12.27623047 -6.06640625 13.76953125 C-6.70449219 14.50558594 -7.34257813 15.24164063 -8 16 C-8.33 15.34 -8.66 14.68 -9 14 C-7.63674916 11.53372842 -6.23300004 9.22230081 -4.6875 6.875 C-4.06198242 5.88693359 -4.06198242 5.88693359 -3.42382812 4.87890625 C-2.34213766 3.21237836 -1.17664143 1.60090113 0 0 Z " fill="#532834" transform="translate(45,29)"/>
<path d="M0 0 C0.66 1.32 1.32 2.64 2 4 C1.34 4 0.68 4 0 4 C-0.09474609 4.91845703 -0.09474609 4.91845703 -0.19140625 5.85546875 C-1 8 -1 8 -3.21484375 9.30078125 C-4.11332031 9.63464844 -5.01179688 9.96851563 -5.9375 10.3125 C-7.28134766 10.83263672 -7.28134766 10.83263672 -8.65234375 11.36328125 C-11 12 -11 12 -13 11 C-11.71802734 10.18595703 -11.71802734 10.18595703 -10.41015625 9.35546875 C-9.30542969 8.64003906 -8.20070313 7.92460938 -7.0625 7.1875 C-5.96035156 6.47980469 -4.85820313 5.77210937 -3.72265625 5.04296875 C-0.75783719 3.22188032 -0.75783719 3.22188032 0 0 Z " fill="#EEDCE0" transform="translate(50,36)"/>
<path d="M0 0 C1.98 0 3.96 0 6 0 C6.66 1.32 7.32 2.64 8 4 C5.03 4 2.06 4 -1 4 C-0.67 2.68 -0.34 1.36 0 0 Z " fill="#451222" transform="translate(29,46)"/>
<path d="M0 0 C-0.34485543 2.8842454 -0.78255407 3.8207818 -3.06640625 5.703125 C-3.89011719 6.21359375 -4.71382812 6.7240625 -5.5625 7.25 C-6.38878906 7.77078125 -7.21507812 8.2915625 -8.06640625 8.828125 C-9.02353516 9.40820312 -9.02353516 9.40820312 -10 10 C-10.66 9.67 -11.32 9.34 -12 9 C-10.38050958 7.49405319 -8.75424026 5.99539332 -7.125 4.5 C-6.22007813 3.6646875 -5.31515625 2.829375 -4.3828125 1.96875 C-2 0 -2 0 0 0 Z " fill="#582D37" transform="translate(50,36)"/>
<path d="M0 0 C2.99220268 1.36370299 5.29026529 2.94908083 7.75 5.125 C8.67039062 5.93324219 8.67039062 5.93324219 9.609375 6.7578125 C10.06828125 7.16773438 10.5271875 7.57765625 11 8 C7.66103832 8 6.59519111 7.40577375 3.8125 5.6875 C3.09707031 5.25824219 2.38164062 4.82898437 1.64453125 4.38671875 C1.10183594 3.92910156 0.55914062 3.47148438 0 3 C0 2.01 0 1.02 0 0 Z " fill="#542732" transform="translate(15,37)"/>
<path d="M0 0 C0.66 0.33 1.32 0.66 2 1 C2 1.66 2 2.32 2 3 C2.66 3 3.32 3 4 3 C5.32 5.31 6.64 7.62 8 10 C4.18315774 8.44499019 1.80804268 5.96404505 -1 3 C-0.67 2.01 -0.34 1.02 0 0 Z " fill="#E6D6DB" transform="translate(19,35)"/>
<path d="M0 0 C1.1875 1.6875 1.1875 1.6875 2 4 C0.625 6.75 0.625 6.75 -1 9 C-1.33 8.34 -1.66 7.68 -2 7 C-2.66 6.67 -3.32 6.34 -4 6 C-3.6875 4.125 -3.6875 4.125 -3 2 C-2.01 1.34 -1.02 0.68 0 0 Z " fill="#F3EDEF" transform="translate(43,26)"/>
<path d="M0 0 C0.66 0.33 1.32 0.66 2 1 C2 3.31 2 5.62 2 8 C0.68 8.33 -0.64 8.66 -2 9 C-2.6875 6.75 -2.6875 6.75 -3 4 C-1.5625 1.6875 -1.5625 1.6875 0 0 Z " fill="#86626D" transform="translate(31,37)"/>
<path d="M0 0 C0.33 0.99 0.66 1.98 1 3 C-2.50776784 4.60355101 -5.14354879 5.22036864 -9 5 C-6.14693203 2.67527795 -3.45925163 1.2491742 0 0 Z " fill="#5E3841" transform="translate(48,43)"/>
<path d="M0 0 C2.97 0.99 5.94 1.98 9 3 C9 3.33 9 3.66 9 4 C6.36 3.67 3.72 3.34 1 3 C0.67 2.01 0.34 1.02 0 0 Z " fill="#4A212B" transform="translate(16,44)"/>
<path d="M0 0 C-1.22934015 3.68802044 -2.93859378 4.72356973 -6 7 C-6.66 6.67 -7.32 6.34 -8 6 C-3.375 0 -3.375 0 0 0 Z " fill="#E8CED5" transform="translate(44,39)"/>
</svg>
